<?xml version="1.0" standalone="no"?>
<!DOCTYPE svg PUBLIC "-//W3C//DTD SVG 20010904//EN"
 "http://www.w3.org/TR/2001/REC-SVG-20010904/DTD/svg10.dtd">
<svg version="1.0" xmlns="http://www.w3.org/2000/svg"
 width="749.000000pt" height="749.000000pt" viewBox="0 0 749.000000 749.000000"
 preserveAspectRatio="xMidYMid meet">
<metadata>
Created by potrace 1.11, written by Peter Selinger 2001-2013
</metadata>
<g transform="translate(0.000000,749.000000) scale(0.100000,-0.100000)"
fill="#000000" stroke="none">
<path d="M5252 7451 c-33 -33 -41 -36 -97 -37 -67 -1 -98 -11 -74 -24 8 -4 43
-17 79 -29 36 -12 74 -26 85 -31 11 -5 30 -12 43 -15 22 -6 22 -5 10 16 -7 13
-22 30 -32 39 -18 16 -17 19 44 69 l62 52 -41 -3 c-33 -1 -50 -10 -79 -37z"/>
<path d="M3235 7036 c-69 -25 -150 -77 -214 -135 -25 -23 -54 -41 -65 -42 -42
-1 -266 -56 -344 -83 -23 -8 -44 -16 -47 -16 -3 0 -13 -3 -22 -6 -51 -16 -70
-23 -88 -30 -11 -4 -24 -8 -30 -9 -16 -4 -168 -66 -180 -73 -5 -4 -14 -7 -20
-8 -13 -2 -227 -107 -285 -140 -105 -60 -215 -128 -218 -136 -2 -4 -8 -8 -13
-8 -9 0 -217 -145 -229 -160 -3 -3 -18 -15 -33 -27 l-29 -22 -47 57 c-92 110
-205 202 -304 247 -71 33 -99 38 -197 39 -76 1 -92 -3 -152 -31 -37 -17 -75
-38 -83 -45 -40 -32 -112 -112 -137 -151 -15 -23 -32 -47 -38 -54 -5 -7 -10
-15 -10 -18 0 -4 -12 -32 -26 -63 -42 -90 -82 -218 -98 -307 -3 -17 -10 -52
-15 -80 -33 -177 -36 -564 -6 -772 3 -18 7 -45 9 -60 11 -76 37 -220 43 -233
3 -8 7 -22 8 -30 3 -20 12 -56 24 -100 5 -19 13 -46 16 -60 4 -14 9 -32 12
-40 3 -8 7 -19 8 -25 22 -98 201 -501 228 -513 4 -2 7 -8 7 -13 0 -5 20 -38
45 -73 25 -36 45 -67 45 -70 0 -15 168 -189 226 -234 45 -35 168 -100 205
-108 13 -3 57 -8 97 -11 l72 -6 1 -36 c0 -20 3 -45 5 -56 3 -11 7 -49 9 -85 3
-36 7 -79 10 -96 2 -17 7 -80 11 -140 3 -60 8 -112 11 -116 2 -5 -2 -8 -10 -8
-8 0 -32 -8 -53 -17 -22 -9 -41 -17 -44 -18 -31 -9 -149 -64 -290 -135 -157
-79 -203 -103 -210 -111 -3 -3 -12 -9 -20 -12 -8 -4 -28 -16 -45 -27 -16 -11
-44 -27 -62 -35 -17 -8 -37 -20 -45 -27 -7 -8 -38 -29 -68 -48 -30 -19 -59
-38 -65 -43 -5 -4 -36 -26 -67 -48 -32 -22 -58 -44 -58 -49 0 -42 200 -474
249 -539 14 -19 26 -37 25 -40 -1 -13 170 -277 202 -311 8 -8 28 -33 44 -55
16 -22 33 -45 37 -50 80 -105 318 -348 458 -466 140 -118 373 -285 455 -327
14 -7 52 -28 85 -48 62 -36 320 -164 331 -164 3 0 20 -6 37 -14 50 -23 160
-67 177 -71 8 -2 35 -10 60 -19 25 -9 52 -18 60 -20 8 -2 33 -9 55 -15 22 -6
45 -11 50 -12 6 -1 21 -6 35 -11 14 -5 36 -12 50 -14 14 -3 50 -11 80 -19 30
-8 69 -16 85 -19 17 -3 41 -8 55 -11 38 -7 217 -33 290 -42 142 -16 657 -8
760 12 9 2 41 6 70 10 29 4 62 9 74 11 12 2 35 6 51 9 17 3 44 8 60 12 17 3
37 7 45 9 8 1 25 5 38 8 12 3 30 8 40 10 203 47 416 119 607 206 95 43 262
128 307 157 21 12 40 23 43 23 3 0 18 8 33 19 15 10 75 51 135 90 59 39 115
78 125 86 9 7 45 35 79 60 206 153 528 485 663 685 8 12 25 36 38 53 43 59
112 168 112 177 0 6 5 10 10 10 6 0 10 4 10 9 0 5 20 44 45 86 40 68 165 317
165 329 0 3 11 29 24 58 61 134 170 489 192 623 7 44 11 70 20 108 3 16 7 38
9 50 1 12 6 42 9 67 19 132 27 253 30 428 l2 132 -31 1 c-88 2 -410 -14 -410
-21 0 -1 -13 -3 -30 -5 -29 -2 -149 -21 -190 -30 -22 -4 -30 -6 -130 -29 -77
-18 -222 -61 -263 -78 -15 -6 -31 -12 -37 -13 -72 -17 -341 -149 -480 -236
-91 -57 -243 -163 -255 -178 -3 -4 -27 -25 -55 -46 -50 -40 -262 -249 -300
-296 -11 -13 -39 -47 -62 -76 -24 -28 -43 -56 -43 -62 0 -6 -4 -11 -8 -11 -5
0 -28 -29 -51 -65 l-43 -65 -32 22 c-17 12 -32 23 -34 24 -2 1 3 15 11 31 16
30 54 143 61 178 2 11 9 38 15 60 16 59 21 113 27 273 3 94 1 148 -6 160 -8
12 -10 12 -7 2 4 -14 -25 -107 -54 -175 -7 -16 -13 -32 -14 -35 -1 -3 -8 -18
-15 -35 -7 -16 -14 -32 -15 -35 -5 -16 -66 -140 -69 -140 -2 0 -5 37 -6 83 -2
96 -7 172 -14 207 -3 14 -7 42 -10 63 -10 68 -37 190 -54 247 -8 30 -17 60
-18 65 -8 26 -54 156 -73 204 -50 124 -128 288 -141 296 -12 8 -12 8 0 -35 32
-109 34 -766 4 -1125 -3 -33 -5 -70 -5 -82 0 -13 -2 -23 -5 -23 -6 0 -52 21
-304 143 -243 116 -378 174 -515 218 -46 15 -67 28 -61 38 5 8 11 61 42 371 2
19 6 69 10 110 3 41 8 91 9 110 2 19 4 51 4 70 1 34 3 36 54 48 128 30 285
151 385 299 45 66 131 226 151 283 8 19 20 50 28 69 34 77 111 367 129 489 3
20 7 48 9 62 2 14 7 48 11 75 7 59 10 66 27 60 7 -3 46 -7 87 -9 41 -2 77 -4
80 -5 3 -1 5 -22 4 -47 0 -42 9 -117 18 -154 3 -8 8 -30 12 -49 32 -134 152
-305 281 -396 139 -99 261 -138 430 -139 66 0 136 3 155 7 19 4 40 9 47 10 7
2 16 6 19 10 4 4 16 7 26 7 28 0 156 66 213 110 69 52 165 150 165 168 0 3 6
13 14 21 8 9 31 49 51 89 33 66 51 83 69 65 3 -4 12 -8 19 -9 25 -4 329 -116
392 -144 11 -5 77 -34 148 -65 125 -55 426 -203 499 -247 21 -12 39 -20 42
-17 5 5 -17 103 -44 199 -12 41 -24 82 -26 90 -2 8 -11 37 -20 63 -18 53 -20
54 -279 172 -141 64 -517 208 -574 220 -9 2 -29 9 -46 16 -34 14 -30 13 -72
23 -18 4 -33 13 -34 19 -8 99 -60 267 -95 307 -7 8 -13 19 -12 23 0 5 -11 21
-24 37 -12 16 -32 40 -42 55 -89 121 -283 234 -446 261 -57 10 -214 10 -260 1
-68 -13 -76 -15 -134 -36 -33 -11 -91 -39 -130 -63 -74 -44 -211 -173 -236
-223 -8 -17 -17 -32 -20 -35 -3 -3 -14 -21 -24 -41 l-19 -35 -116 4 c-64 2
-117 4 -118 5 -1 1 -3 67 -4 147 -2 80 -5 149 -7 153 -2 5 -6 39 -8 75 -3 71
-9 128 -18 177 -2 17 -7 48 -11 70 -3 23 -8 52 -11 65 -3 14 -7 36 -9 50 -4
26 -56 221 -73 276 -10 31 -10 32 23 28 88 -8 150 -17 220 -30 17 -3 45 -7 63
-9 18 -2 41 -6 50 -9 9 -3 37 -8 62 -11 24 -4 47 -8 51 -10 3 -2 21 -7 40 -10
19 -3 72 -15 118 -27 46 -11 90 -21 97 -22 7 -1 17 -5 20 -9 4 -4 17 -7 28 -7
12 0 40 -7 63 -15 22 -8 52 -16 65 -19 12 -2 34 -8 48 -14 14 -6 63 -22 110
-37 115 -37 290 -106 440 -172 186 -82 472 -237 638 -345 15 -10 37 -23 50
-29 12 -7 22 -16 22 -21 0 -4 5 -8 11 -8 6 0 48 -26 92 -58 100 -71 116 -81
101 -61 -6 8 -38 50 -70 94 -63 87 -72 98 -94 124 -8 9 -35 42 -60 72 -124
151 -340 362 -490 479 -25 19 -49 38 -55 42 -30 24 -144 106 -151 109 -5 2
-49 31 -99 63 -107 71 -174 109 -316 180 -117 59 -402 176 -428 176 -10 0 -21
4 -26 9 -6 4 -32 14 -60 21 -27 7 -56 17 -62 23 -7 5 -13 7 -13 4 0 -3 -33 4
-72 14 -40 11 -82 22 -93 24 -30 7 -67 15 -95 20 -45 9 -211 36 -254 41 -22 2
-54 7 -71 9 -16 3 -84 7 -150 11 -107 5 -123 9 -145 29 -32 29 -145 91 -185
101 -16 4 -68 9 -115 10 -65 1 -99 -4 -145 -20z m-555 -734 c0 -5 -7 -33 -16
-63 -9 -30 -18 -61 -19 -69 -2 -8 -4 -16 -5 -17 -3 -4 -4 -7 -18 -73 -27 -124
-52 -272 -57 -345 -2 -33 -5 -60 -5 -60 -12 0 -17 -396 -7 -550 4 -60 9 -127
10 -148 2 -38 1 -39 -68 -75 -38 -20 -76 -42 -83 -49 -7 -7 -17 -13 -22 -13
-10 0 -124 -77 -199 -134 -29 -22 -108 -96 -176 -162 l-122 -122 0 117 c0 156
-18 375 -37 461 -3 14 -8 43 -11 65 -2 22 -9 58 -14 80 -6 22 -10 40 -10 40 4
0 -15 83 -20 90 -4 6 -8 23 -9 38 -1 16 -5 34 -9 40 -4 7 -9 21 -11 32 -5 33
-72 225 -114 325 -38 90 -91 195 -144 286 l-24 41 42 13 c24 7 70 22 103 33
33 10 67 21 75 23 8 2 65 17 125 34 96 27 291 74 350 86 11 2 43 8 70 14 28 6
64 13 80 16 17 2 53 9 80 14 28 5 68 12 90 15 51 6 119 16 122 19 7 6 53 4 53
-2z m-72 -1588 c2 -20 6 -42 9 -48 4 -6 8 -17 9 -26 10 -90 84 -308 155 -459
84 -177 198 -329 309 -412 44 -33 130 -78 159 -84 13 -2 30 -6 39 -9 9 -2 29
-7 44 -10 20 -5 26 -11 23 -27 -2 -11 -7 -66 -10 -122 -3 -56 -7 -111 -9 -122
-2 -11 -7 -58 -11 -105 -3 -47 -8 -96 -10 -110 -11 -85 -18 -149 -20 -172 -1
-15 -3 -30 -6 -32 -3 -3 -32 2 -64 10 -192 51 -418 82 -622 87 -51 1 -93 4
-94 7 -2 9 -6 63 -13 190 -4 69 -9 168 -12 220 -9 137 -9 741 -1 836 4 44 14
114 22 154 8 40 14 74 12 76 -3 4 -98 -182 -127 -251 -40 -92 -43 -100 -45
-105 -1 -3 -5 -12 -8 -20 -53 -121 -146 -464 -163 -595 -2 -16 -6 -41 -9 -55
-7 -36 -19 -215 -17 -277 0 -29 -2 -53 -6 -53 -6 0 -41 69 -46 90 -1 3 -14 31
-29 62 -28 60 -44 98 -45 111 -1 4 -8 20 -16 35 -22 40 -56 145 -56 173 0 18
-2 21 -9 10 -8 -12 -9 -316 -2 -316 1 0 4 -21 6 -46 2 -26 7 -60 10 -75 3 -16
7 -41 10 -57 8 -43 33 -136 40 -146 6 -10 -11 -17 -65 -26 -19 -3 -53 -11 -75
-16 -22 -6 -47 -12 -55 -14 -38 -8 -217 -58 -281 -80 -40 -14 -73 -24 -75 -22
-1 1 -5 40 -8 87 -9 140 -15 213 -20 255 -3 22 -8 67 -12 100 -3 33 -8 63 -10
66 -2 3 27 21 64 40 108 54 210 168 272 304 41 90 59 135 55 135 -2 0 3 17 11
37 9 20 17 44 19 52 2 9 9 39 15 66 6 28 13 59 15 70 12 63 15 86 21 140 3 33
7 64 8 69 1 12 34 44 95 95 24 20 49 41 55 47 6 5 63 44 126 86 151 100 418
235 440 222 3 -1 7 -19 8 -40z"/>
<path d="M1551 6968 c-27 -10 -61 -40 -61 -54 0 -9 -22 -12 -70 -11 -82 1
-108 -14 -58 -33 18 -6 49 -18 68 -25 19 -7 59 -22 87 -33 l53 -21 -15 27 c-8
15 -22 37 -31 50 -9 12 -12 22 -7 22 5 0 27 16 49 35 21 19 42 35 47 35 4 0 7
4 7 10 0 11 -38 10 -69 -2z"/>
<path d="M4569 6157 c-21 -11 -42 -30 -49 -42 -10 -19 -19 -22 -49 -19 -43 4
-111 -6 -111 -16 0 -11 220 -89 225 -80 3 5 -6 22 -20 38 -30 35 -31 49 -7 56
9 4 34 22 54 40 36 32 36 34 15 38 -12 2 -38 -5 -58 -15z"/>
</g>
</svg>
